<?xml version="1.0" encoding="UTF-8" standalone="no"?>
<svg
   xmlns:dc="http://purl.org/dc/elements/1.1/"
   xmlns:cc="http://creativecommons.org/ns#"
   xmlns:rdf="http://www.w3.org/1999/02/22-rdf-syntax-ns#"
   xmlns:svg="http://www.w3.org/2000/svg"
   xmlns="http://www.w3.org/2000/svg"
   xmlns:sodipodi="http://sodipodi.sourceforge.net/DTD/sodipodi-0.dtd"
   xmlns:inkscape="http://www.inkscape.org/namespaces/inkscape"
   version="1.1"
   x="0px"
   y="0px"
   viewBox="0 0 78 85.599998"
   xml:space="preserve"
   id="svg945"
   sodipodi:docname="noun_sound.svg"
   width="78"
   height="85.599998"
   inkscape:version="0.92.3 (2405546, 2018-03-11)"><metadata
     id="metadata951"><rdf:RDF><cc:Work
         rdf:about=""><dc:format>image/svg+xml</dc:format><dc:type
           rdf:resource="http://purl.org/dc/dcmitype/StillImage" /><dc:title></dc:title></cc:Work></rdf:RDF></metadata><defs
     id="defs949" /><sodipodi:namedview
     pagecolor="#ffffff"
     bordercolor="#666666"
     borderopacity="1"
     objecttolerance="10"
     gridtolerance="10"
     guidetolerance="10"
     inkscape:pageopacity="0"
     inkscape:pageshadow="2"
     inkscape:window-width="1916"
     inkscape:window-height="1168"
     id="namedview947"
     showgrid="false"
     fit-margin-left="10"
     fit-margin-right="10"
     fit-margin-top="10"
     fit-margin-bottom="10"
     inkscape:zoom="7.888"
     inkscape:cx="39"
     inkscape:cy="30.3"
     inkscape:window-x="0"
     inkscape:window-y="0"
     inkscape:window-maximized="0"
     inkscape:current-layer="svg945" /><g
     id="g939"
     transform="translate(-11,-7.2)"><g
       id="g905"><path
         d="m 29.1,44.5 c -4.4,0 -8.1,-3.6 -8.1,-8.1 0,-4.5 3.6,-8.1 8.1,-8.1 4.5,0 8.1,3.6 8.1,8.1 0,4.5 -3.6,8.1 -8.1,8.1 z m 0,-13.3 c -2.9,0 -5.2,2.3 -5.2,5.2 0,2.9 2.3,5.2 5.2,5.2 2.9,0 5.2,-2.3 5.2,-5.2 0,-2.9 -2.3,-5.2 -5.2,-5.2 z"
         id="path903"
         inkscape:connector-curvature="0" /></g><g
       id="g909"><path
         d="m 30,82.8 h -1.8 c -2.4,0 -4.3,-1.9 -4.3,-4.3 V 41.9 c 0,-0.8 0.6,-1.4 1.4,-1.4 0.8,0 1.4,0.6 1.4,1.4 v 36.6 c 0,0.8 0.7,1.5 1.5,1.5 H 30 c 0.8,0 1.5,-0.7 1.5,-1.5 V 41.9 c 0,-0.8 0.6,-1.4 1.4,-1.4 0.8,0 1.4,0.6 1.4,1.4 v 36.6 c 0,2.4 -1.9,4.3 -4.3,4.3 z"
         id="path907"
         inkscape:connector-curvature="0" /></g><g
       id="g913"><path
         d="m 32.9,32.4 c -0.8,0 -1.4,-0.6 -1.4,-1.4 V 21.5 C 31.5,20.7 30.8,20 30,20 h -1.8 c -0.8,0 -1.5,0.7 -1.5,1.5 V 31 c 0,0.8 -0.6,1.4 -1.4,1.4 -0.8,0 -1.4,-0.6 -1.4,-1.4 v -9.5 c 0,-2.4 1.9,-4.3 4.3,-4.3 H 30 c 2.4,0 4.3,1.9 4.3,4.3 V 31 c 0,0.8 -0.6,1.4 -1.4,1.4 z"
         id="path911"
         inkscape:connector-curvature="0" /></g><g
       id="g917"><path
         d="m 50,67.7 c -4.4,0 -8.1,-3.6 -8.1,-8.1 0,-4.5 3.6,-8.1 8.1,-8.1 4.5,0 8.1,3.6 8.1,8.1 0,4.5 -3.7,8.1 -8.1,8.1 z m 0,-13.2 c -2.9,0 -5.2,2.3 -5.2,5.2 0,2.9 2.3,5.2 5.2,5.2 2.9,0 5.2,-2.3 5.2,-5.2 0,-2.9 -2.3,-5.2 -5.2,-5.2 z"
         id="path915"
         inkscape:connector-curvature="0" /></g><g
       id="g921"><path
         d="m 50.9,82.8 h -1.8 c -2.4,0 -4.3,-1.9 -4.3,-4.3 V 65.1 c 0,-0.8 0.6,-1.4 1.4,-1.4 0.8,0 1.4,0.6 1.4,1.4 v 13.4 c 0,0.8 0.7,1.5 1.5,1.5 h 1.8 c 0.8,0 1.5,-0.7 1.5,-1.5 V 65.1 c 0,-0.8 0.6,-1.4 1.4,-1.4 0.8,0 1.4,0.6 1.4,1.4 v 13.4 c 0,2.4 -1.9,4.3 -4.3,4.3 z"
         id="path919"
         inkscape:connector-curvature="0" /></g><g
       id="g925"><path
         d="m 53.8,55.7 c -0.8,0 -1.4,-0.6 -1.4,-1.4 V 21.5 C 52.4,20.7 51.7,20 50.9,20 h -1.8 c -0.8,0 -1.5,0.7 -1.5,1.5 v 32.7 c 0,0.8 -0.6,1.4 -1.4,1.4 -0.8,0 -1.4,-0.6 -1.4,-1.4 V 21.5 c 0,-2.4 1.9,-4.3 4.3,-4.3 h 1.8 c 2.4,0 4.3,1.9 4.3,4.3 v 32.7 c 0,0.8 -0.6,1.5 -1.4,1.5 z"
         id="path923"
         inkscape:connector-curvature="0" /></g><g
       id="g929"><path
         d="m 70.9,49 c -4.4,0 -8.1,-3.6 -8.1,-8.1 0,-4.5 3.6,-8.1 8.1,-8.1 4.5,0 8.1,3.6 8.1,8.1 0,4.5 -3.7,8.1 -8.1,8.1 z m 0,-13.2 c -2.9,0 -5.2,2.3 -5.2,5.2 0,2.9 2.3,5.2 5.2,5.2 2.9,0 5.2,-2.3 5.2,-5.2 0,-2.9 -2.3,-5.2 -5.2,-5.2 z"
         id="path927"
         inkscape:connector-curvature="0" /></g><g
       id="g933"><path
         d="m 74.7,36.9 c -0.8,0 -1.4,-0.6 -1.4,-1.4 v -14 C 73.3,20.7 72.6,20 71.8,20 H 70 c -0.8,0 -1.5,0.7 -1.5,1.5 v 14 c 0,0.8 -0.6,1.4 -1.4,1.4 -0.8,0 -1.4,-0.6 -1.4,-1.4 v -14 c 0,-2.4 1.9,-4.3 4.3,-4.3 h 1.8 c 2.4,0 4.3,1.9 4.3,4.3 v 14 c 0,0.8 -0.7,1.4 -1.4,1.4 z"
         id="path931"
         inkscape:connector-curvature="0" /></g><g
       id="g937"><path
         d="M 71.8,82.8 H 70 c -2.4,0 -4.3,-1.9 -4.3,-4.3 V 46.4 c 0,-0.8 0.6,-1.4 1.4,-1.4 0.8,0 1.4,0.6 1.4,1.4 v 32.1 c 0,0.8 0.7,1.5 1.5,1.5 h 1.8 c 0.8,0 1.5,-0.7 1.5,-1.5 V 46.4 c 0,-0.8 0.6,-1.4 1.4,-1.4 0.8,0 1.4,0.6 1.4,1.4 v 32.1 c 0,2.4 -2,4.3 -4.3,4.3 z"
         id="path935"
         inkscape:connector-curvature="0" /></g></g><text
     x="-11"
     y="107.8"
     font-size="5px"
     font-weight="bold"
     id="text941"
     style="font-weight:bold;font-size:5px;font-family:'Helvetica Neue', Helvetica, Arial-Unicode, Arial, Sans-serif;fill:#000000">Created by Rudez Studio</text>
<text
     x="-11"
     y="112.8"
     font-size="5px"
     font-weight="bold"
     id="text943"
     style="font-weight:bold;font-size:5px;font-family:'Helvetica Neue', Helvetica, Arial-Unicode, Arial, Sans-serif;fill:#000000">from the Noun Project</text>
</svg>